# AST/ASF file generated using VICON BodyLanguage
# -----------------------------------------------
:version 1.10
:name VICON
:units
  mass 1.0
  length 0.45
  angle deg
:documentation
   .ast/.asf automatically generated from VICON data using
   VICON BodyBuilder and BodyLanguage model FoxedUp or BRILLIANT.MOD
:root
   order TX TY TZ RX RY RZ
   axis XYZ
   position 0 0 0  
   orientation 0 0 0 
:bonedata
  begin
     id 1 
     name lhipjoint
     direction 0.612567 -0.751349 0.245431 
     length 2.42285 
     axis 0 0 0  XYZ
  end
  begin
     id 2 
     name lfemur
     direction 0.34202 -0.939693 0  
     length 7.11304  
     axis 0 0 20  XYZ
    dof rx ry rz
    limits (-160.0 20.0)
           (-70.0 70.0)
           (-60.0 70.0)
  end
  begin
     id 3 
     name ltibia
     direction 0.34202 -0.939693 0   
     length 7.84529   
     axis 0 0 20   XYZ
    dof rx
    limits (-10.0 170.0)
  end
  begin
     id 4 
     name lfoot
     direction 0.0779239 -0.214094 0.9737   
     length 1.97176   
     axis -90 7.62852e-016 20   XYZ
    dof rx rz
    limits (-45.0 90.0)
           (-70.0 20.0)
  end
  begin
     id 5 
     name ltoes
     direction 1.53565e-011 -4.21709e-011 1   
     length 0.993197   
     axis -90 7.62852e-016 20   XYZ
    dof rx
    limits (-90.0 20.0)
  end
  begin
     id 6 
     name rhipjoint
     direction -0.665722 -0.709315 0.231701   
     length 2.56642  
     axis 0 0 0  XYZ 
  end
  begin
     id 7 
     name rfemur
     direction -0.34202 -0.939693 0   
     length 7.32108   
     axis 0 0 -20   XYZ
    dof rx ry rz
    limits (-160.0 20.0)
           (-70.0 70.0)
           (-70.0 60.0)
  end
  begin
     id 8 
     name rtibia
     direction -0.34202 -0.939693 0   
     length 7.81254   
     axis 0 0 -20   XYZ
    dof rx
    limits (-10.0 170.0)
 end
 begin
     id 9 
     name rfoot
     direction -0.0832806 -0.228812 0.969902   
     length 2.08278  
     axis -90 -7.62852e-016 -20   XYZ
    dof rx rz
    limits (-45.0 90.0)
           (-20.0 70.0)
  end
  begin
     id 10 
     name rtoes
     direction -1.53589e-011 -4.22086e-011 1   
     length 1.04609   
     axis -90 -7.62852e-016 -20   XYZ
    dof rx
    limits (-90.0 20.0)
  end
  begin
     id 11 
     name lowerback
     direction -0.00506013 0.988403 -0.151766   
     length 2.01978   
     axis 0 0 0   XYZ
    dof rx ry rz
    limits (-20.0 45.0)
           (-30.0 30.0)
           (-30.0 30.0)
  end
  begin
     id 12 
     name upperback
     direction -0.00836389 0.99968 0.0238859   
     length 2.01276   
     axis 0 0 0   XYZ
    dof rx ry rz
    limits (-20.0 45.0)
           (-30.0 30.0)
           (-30.0 30.0)
  end
  begin
     id 13 
     name thorax
     direction -0.00684136 0.995386 0.0957043   
     length 2.07303   
     axis 0 0 0   XYZ
    dof rx ry rz
    limits (-20.0 45.0)
           (-30.0 30.0)
           (-30.0 30.0)
  end
  begin
     id 14 
     name lowerneck
     direction -0.0161045 0.999661 0.0204485   
     length 1.91243   
     axis 0 0 0   XYZ
    dof rx ry rz
    limits (-20.0 45.0)
           (-30.0 30.0)
           (-30.0 30.0)
  end
  begin
     id 15 
     name upperneck
     direction 0.0553583 0.990946 -0.122319   
     length 1.91574   
     axis 0 0 0   XYZ
    dof rx ry rz
    limits (-20.0 45.0)
           (-30.0 30.0)
           (-30.0 30.0)
  end
  begin
     id 16
     name head
     direction 0.0180273 0.998839 -0.0446756  
     length 1.92693  
     axis 0 0 0   XYZ
    dof rx ry rz
    limits (-20.0 45.0)
           (-30.0 30.0)
           (-30.0 30.0)
  end
  begin
     id 17 
     name lclavicle
     direction 0.945646 0.319323 -0.0615358  
     length 4.0076  
     axis 0 0 0   XYZ
    dof ry rz
    limits (-20.0 10.0)
           (0.0 20.0)
  end
  begin
     id 18 
     name lhumerus
     direction 1 -4.48967e-011 -2.79996e-027   
     length 5.64147   
     axis 180 -30 -90   XYZ
    dof rx ry rz
    limits (-60.0 90.0)
           (-90.0 90.0)
           (-90.0 90.0)
  end
  begin
     id 19
     name lradius
     direction 1 -4.48976e-011 -9.5122e-027   
     length 2.86444   
     axis 180 -30 -90   XYZ
    dof rx
    limits (-10.0 170.0)
  end
  begin
     id 20
     name lwrist
     direction 1 -4.48983e-011 -1.24047e-026   
     length 1.43222   
     axis 9.05591e-015 90 90   XYZ
    dof ry
    limits (-180.0 0.0)
 end
  begin
     id 21 
     name lhand
     direction 1 -4.4892e-011 -2.48094e-026   
     length 0.722123   
     axis 1.58305e-014 90 90   XYZ
    dof rx rz
    limits (-90.0 90.0)
           (-45.0 45.0)
  end
  begin
     id 22 
     name lfingers
     direction 1 -4.48895e-011 -4.96187e-026   
     length 0.582194   
     axis 3.1661e-014 90 90   XYZ
    dof rx
    limits (0.0 90.0)
  end
  begin
     id 23
     name lthumb
     direction 0.707107 -6.34961e-011 0.707107   
     length 0.835918   
     axis -90 45 2.85299e-015   XYZ
    dof rx rz
    limits (-45.0 45.0)
           (-45.0 45.0)
  end
  begin
     id 24 
     name rclavicle
     direction -0.932635 0.324218 -0.15835   
     length 3.65819  
     axis 0 0 0   XYZ 
    dof ry rz
    limits (-10.0 20.0)
           (-20.0 0.0)
  end
  begin
     id 25 
     name rhumerus
     direction -1 -4.48965e-011 -4.02296e-027  
     length 5.44729   
     axis 180 30 90   XYZ
    dof rx ry rz
    limits (-90.0 60.0)
           (-90.0 90.0)
           (-90.0 90.0)
  end
  begin
     id 26 
     name rradius
     direction -1 -4.48957e-011 -8.81087e-027   
     length 3.08821   
     axis 180 30 90   XYZ
    dof rx
    limits (-10.0 170.0)
  end
  begin
     id 27 
     name rwrist
     direction -1 -4.49015e-011 -1.24047e-026   
     length 1.5441   
     axis 9.05591e-015 -90 -90   XYZ
    dof ry
    limits (-180.0 0.0)
  end
  begin
     id 28
     name rhand
     direction -1 -4.4891e-011 -2.48094e-026   
     length 0.821049   
     axis 1.58305e-014 -90 -90   XYZ
    dof rx rz
    limits (-90.0 90.0)
           (-45.0 45.0)
  end
  begin
     id 29
     name rfingers
     direction -1 -4.48985e-011 -4.96187e-026   
     length 0.661951   
     axis 3.1661e-014 -90 -90   XYZ
    dof rx
    limits (0.0 90.0)
  end
  begin
     id 30
     name rthumb
     direction -0.707107 -6.34906e-011 0.707107   
     length 0.950433   
     axis -90 -45 -2.85299e-015   XYZ
    dof rx rz
    limits (-45.0 45.0)
           (-45.0 45.0)
  end
:hierarchy
  begin
    root lhipjoint rhipjoint lowerback
    lhipjoint lfemur
    lfemur ltibia
    ltibia lfoot
    lfoot ltoes
    rhipjoint rfemur
    rfemur rtibia
    rtibia rfoot
    rfoot rtoes
    lowerback upperback
    upperback thorax
    thorax lowerneck lclavicle rclavicle
    lowerneck upperneck
    upperneck head
    lclavicle lhumerus
    lhumerus lradius
    lradius lwrist
    lwrist lhand lthumb
    lhand lfingers
    rclavicle rhumerus
    rhumerus rradius
    rradius rwrist
    rwrist rhand rthumb
    rhand rfingers
  end

#!OML:ASF F:\VICON\USERDATA\INSTALL\rory3\rory3.ASF
:FULLY-SPECIFIED
:DEGREES
3182
root 2.33371 17.7264 -0.500152 573.159 92.5759 571.347
lowerback 15.4695 -2.94006 1.3615
upperback 5.56778 -3.27032 2.23622
thorax -2.69848 -1.49963 2.14012
lowerneck 20.6255 -7.52513 -3.0509
upperneck -23.4959 -8.55265 11.0352
head -10.2449 -5.03305 5.68493
rclavicle -5.80451e-014 1.11319e-014
rhumerus 19.5904 -25.9928 -23.5752
rradius 116.918
rwrist 12.0082
rhand 30.7166 9.04996
rfingers 7.12502
rthumb 54.35 -9.54863
lclavicle -5.80451e-014 1.11319e-014
lhumerus 32.4411 13.8636 44.306
lradius 123.495
lwrist 30.1446
lhand -2.67662 33.2877
lfingers 7.12502
lthumb 23.0243 61.9324
rfemur -9.33033 2.73341 14.8645
rtibia 21.0916
rfoot -17.686 -8.57551
rtoes -7.1003
lfemur -7.0752 4.02057 -20.1821
ltibia 12.5792
lfoot -7.32125 -2.40676
ltoes 3.25373
3183
root 2.33197 17.7249 -0.49291 573.129 92.5736 571.287
lowerback 15.5575 -3.00936 1.37655
upperback 5.63477 -3.34866 2.29385
thorax -2.66972 -1.53617 2.20822
lowerneck 20.4041 -7.47662 -3.04292
upperneck -23.4619 -8.51049 10.9272
head -10.2008 -4.99773 5.62393
rclavicle 2.10712e-014 -3.89618e-014
rhumerus 19.537 -25.8353 -23.433
rradius 116.941
rwrist 11.9071
rhand 30.8907 9.0315
rfingers 7.12502
rthumb 54.5059 -9.4586
lclavicle 2.10712e-014 -3.89618e-014
lhumerus 32.3226 13.9052 44.1938
lradius 123.346
lwrist 30.5258
lhand -3.05839 32.908
lfingers 7.12502
lthumb 22.6579 61.5979
rfemur -9.35806 2.56765 14.8967
rtibia 21.0829
rfoot -17.543 -8.48959
rtoes -7.75565
lfemur -7.11622 3.89467 -20.1499
ltibia 12.6081
lfoot -7.35444 -2.29107
ltoes 3.27108
3184
root 2.3309 17.7252 -0.485272 573.874 92.5888 572.045
lowerback 15.6883 -3.07175 1.38861
upperback 5.6964 -3.41919 2.30318
thorax -2.67224 -1.56846 2.22861
lowerneck 20.2565 -7.43397 -3.0235
upperneck -23.447 -8.45914 10.8672
head -10.1765 -4.96605 5.58331
rclavicle 2.90226e-014 -3.18055e-014
rhumerus 19.4561 -25.7045 -23.3163
rradius 117.012
rwrist 11.6272
rhand 31.2347 8.90033
rfingers 7.12502
rthumb 54.8135 -9.3724
lclavicle 2.90226e-014 -3.18055e-014
lhumerus 32.1724 13.8796 44.0445
lradius 123.099
lwrist 30.9911
lhand -3.47463 32.3917
lfingers 7.12502
lthumb 22.2584 61.1299
rfemur -9.34544 2.44098 14.8807
rtibia 21.073
rfoot -17.4038 -8.4223
rtoes -8.33397
lfemur -7.12819 3.73476 -20.1653
ltibia 12.6879
lfoot -7.41757 -2.15177
ltoes 3.51339
3185
root 2.32841 17.7268 -0.477198 572.578 92.6096 570.733
lowerback 15.796 -3.05957 1.44857
upperback 5.68923 -3.38716 2.33616
thorax -2.73919 -1.55123 2.2301
lowerneck 20.4265 -7.427 -2.99574
upperneck -23.5146 -8.44373 10.849
head -10.2368 -4.9609 5.58615
rclavicle -4.8901e-014 3.49861e-014
rhumerus 19.1526 -25.5806 -23.022
rradius 117.073
rwrist 11.45
rhand 31.4961 8.86742
rfingers 7.12502
rthumb 55.0467 -9.2374
lclavicle -4.8901e-014 3.49861e-014
lhumerus 32.1554 13.7347 43.9936
lradius 123.179
lwrist 31.0571
lhand -3.22557 32.7427
lfingers 7.12502
lthumb 22.4975 61.4521
rfemur -9.39959 2.41883 14.9401
rtibia 21.0919
rfoot -17.3334 -8.31549
rtoes -7.99684
lfemur -7.18035 3.64682 -20.1032
ltibia 12.7618
lfoot -7.45783 -2.02261
ltoes 3.56539
3186
root 2.32383 17.7281 -0.466824 570.21 92.6576 568.284
lowerback 15.823 -2.99617 1.47868
upperback 5.64816 -3.29645 2.39573
thorax -2.79733 -1.50689 2.26254
lowerneck 20.6253 -7.43864 -2.891
upperneck -23.5368 -8.45217 10.7534
head -10.2927 -4.96449 5.55095
rclavicle 4.37326e-015 1.03368e-014
rhumerus 18.7667 -25.5032 -22.7074
rradius 117.128
rwrist 11.437
rhand 31.4851 9.03176
rfingers 7.12502
rthumb 55.037 -9.08016
lclavicle 4.37326e-015 1.03368e-014
lhumerus 32.2032 13.6001 43.9936
lradius 123.508
lwrist 30.7412
lhand -2.61638 33.6709
lfingers 7.12502
lthumb 23.0821 62.3084
rfemur -9.54207 2.45899 15.0547
rtibia 21.102
rfoot -17.2349 -8.35012
rtoes -8.49187
lfemur -7.32565 3.65527 -19.9922
ltibia 12.8518
lfoot -7.51801 -1.94916
ltoes 3.16353
3187
root 2.32008 17.7282 -0.456801 570.807 92.6199 568.828
lowerback 15.8505 -2.99317 1.47591
upperback 5.64504 -3.28983 2.42216
thorax -2.81353 -1.50339 2.29226
lowerneck 20.7522 -7.50417 -2.68483
upperneck -23.6157 -8.53053 10.5433
head -10.3613 -4.99299 5.46703
rclavicle -1.78906e-014 1.03368e-014
rhumerus 18.465 -25.4837 -22.5267
rradius 117.198
rwrist 11.447
rhand 31.4083 9.03742
rfingers 7.12502
rthumb 54.9684 -9.1241
lclavicle -1.78906e-014 1.03368e-014
lhumerus 32.1618 13.52 43.9309
lradius 123.492
lwrist 30.4853
lhand -1.92565 33.9431
lfingers 7.12502
lthumb 23.7447 62.4961
rfemur -9.60593 2.40432 15.0948
rtibia 21.0969
rfoot -17.1787 -8.38548
rtoes -8.70399
lfemur -7.47812 3.64171 -19.963
ltibia 12.9818
lfoot -7.51955 -1.98452
ltoes 2.96793
3188
root 2.31932 17.7288 -0.448052 570.365 92.4203 568.365
lowerback 15.8887 -3.06543 1.65331
upperback 5.68305 -3.34951 2.47677
thorax -2.7988 -1.52969 2.26151
lowerneck 20.7804 -7.60123 -2.57517
upperneck -23.6949 -8.66731 10.4042
head -10.3974 -5.04795 5.42439
rclavicle -2.78299e-014 -1.43125e-014
rhumerus 18.2473 -25.545 -22.4137
rradius 117.254
rwrist 11.4445
rhand 31.3287 9.07077
rfingers 7.12502
rthumb 54.8974 -9.14185
lclavicle -2.78299e-014 -1.43125e-014
lhumerus 32.0418 13.4795 43.8656
lradius 123.141
lwrist 30.4282
lhand -1.38644 33.4532
lfingers 7.12502
lthumb 24.2618 61.9382
rfemur -9.58864 2.34966 15.252
rtibia 21.0891
rfoot -17.2532 -8.38925
rtoes -8.13014
lfemur -7.63037 3.59064 -19.8051
ltibia 13.1562
lfoot -7.55248 -2.07645
ltoes 2.46816
3189
root 2.31678 17.7288 -0.439369 569.351 92.2538 567.39
lowerback 16.0327 -3.1434 1.80402
upperback 5.75228 -3.41276 2.54856
thorax -2.80442 -1.55638 2.26933
lowerneck 20.5423 -7.60088 -2.61904
upperneck -23.5903 -8.7029 10.343
head -10.3123 -5.05118 5.39159
rclavicle 1.51076e-014 -3.49861e-014
rhumerus 18.0896 -25.6962 -22.2221
rradius 117.38
rwrist 11.344
rhand 31.2716 9.04091
rfingers 7.12502
rthumb 54.8464 -9.2083
lclavicle 1.51076e-014 -3.49861e-014
lhumerus 31.9085 13.5079 43.7772
lradius 122.97
lwrist 30.6149
lhand -1.46063 33.0596
lfingers 7.12502
lthumb 24.1906 61.554
rfemur -9.5386 2.3783 15.41
rtibia 21.1129
rfoot -17.3764 -8.43521
rtoes -7.51855
lfemur -7.69627 3.48278 -19.6401
ltibia 13.3018
lfoot -7.62217 -2.08741
ltoes 2.29889
3190
root 2.31555 17.7257 -0.430026 569.77 92.1431 567.818
lowerback 16.1059 -3.22414 1.84966
upperback 5.84377 -3.49992 2.60472
thorax -2.74321 -1.59607 2.31944
lowerneck 20.209 -7.45614 -2.73329
upperneck -23.4333 -8.54596 10.3216
head -10.2005 -4.96294 5.35148
rclavicle 2.8625e-014 -2.3059e-014
rhumerus 18.0605 -25.9437 -22.1296
rradius 117.524
rwrist 11.3237
rhand 31.2957 8.97919
rfingers 7.12502
rthumb 54.8679 -9.2546
lclavicle 2.8625e-014 -2.3059e-014
lhumerus 31.796 13.6142 43.6476
lradius 122.887
lwrist 31.0165
lhand -2.07592 32.8161
lfingers 7.12502
lthumb 23.6006 61.3878
rfemur -9.5429 2.28517 15.493
rtibia 21.1723
rfoot -17.4169 -8.45078
rtoes -7.4188
lfemur -7.75241 3.41633 -19.5679
ltibia 13.3795
lfoot -7.60205 -2.14531
ltoes 2.15707
3191
root 2.31753 17.7236 -0.42284 573.03 92.0815 571.039
lowerback 16.0767 -3.2704 1.82953
upperback 5.89112 -3.56294 2.6054
thorax -2.67475 -1.62639 2.33941
lowerneck 20.1348 -7.34858 -2.70486
upperneck -23.406 -8.41235 10.2166
head -10.195 -4.88906 5.28762
rclavicle -2.66371e-014 1.43125e-014
rhumerus 17.9885 -26.1462 -22.0527
rradius 117.615
rwrist 11.378
rhand 31.4082 8.78561
rfingers 7.12502
rthumb 54.9684 -9.37592
lclavicle -2.66371e-014 1.43125e-014
lhumerus 31.7757 13.6925 43.6155
lradius 122.812
lwrist 31.3672
lhand -2.56708 32.6618
lfingers 7.12502
lthumb 23.1294 61.2934
rfemur -9.62095 2.03528 15.4429
rtibia 21.2804
rfoot -17.3897 -8.45366
rtoes -8.25972
lfemur -7.80678 3.31289 -19.6292
ltibia 13.376
lfoot -7.54412 -2.17418
ltoes 1.99703
3192
root 2.31777 17.7245 -0.413284 577.732 92.0289 575.723
lowerback 16.1029 -3.28618 1.73921
upperback 5.90362 -3.59568 2.59573
thorax -2.6696 -1.64282 2.38682
lowerneck 20.1973 -7.31737 -2.50166
upperneck -23.4637 -8.37544 9.9314
head -10.2569 -4.85324 5.1582
rclavicle 3.61788e-014 -4.77083e-015
rhumerus 17.8618 -26.2708 -21.9473
rradius 117.639
rwrist 11.5525
rhand 31.3129 8.80069
rfingers 7.12502
rthumb 54.8832 -9.42211
lclavicle 3.61788e-014 -4.77083e-015
lhumerus 31.7403 13.7478 43.6647
lradius 122.697
lwrist 31.5676
lhand -2.74967 32.5055
lfingers 7.12502
lthumb 22.9542 61.1589
rfemur -9.70262 1.88444 15.3519
rtibia 21.4395
rfoot -17.4522 -8.48783
rtoes -8.49917
lfemur -7.81687 3.30372 -19.7267
ltibia 13.3214
lfoot -7.44851 -2.29924
ltoes 1.53678
3193
root 2.31664 17.726 -0.401446 580.696 91.958 578.697
lowerback 16.2021 -3.2862 1.70452
upperback 5.90347 -3.59409 2.6111
thorax -2.71899 -1.64127 2.42793
lowerneck 20.1765 -7.25948 -2.36795
upperneck -23.4235 -8.31996 9.6743
head -10.2636 -4.80629 5.03576
rclavicle 4.09496e-014 -3.4191e-014
rhumerus 17.7073 -26.3844 -21.8476
rradius 117.659
rwrist 11.7218
rhand 31.0863 8.88122
rfingers 7.12502
rthumb 54.6808 -9.48581
lclavicle 4.09496e-014 -3.4191e-014
lhumerus 31.6342 13.8423 43.7739
lradius 122.588
lwrist 31.77
lhand -2.68891 32.3342
lfingers 7.12502
lthumb 23.0125 60.9804
rfemur -9.75487 1.92534 15.3546
rtibia 21.6157
rfoot -17.758 -8.49293
rtoes -7.57562
lfemur -7.77196 3.29108 -19.7215
ltibia 13.23
lfoot -7.33714 -2.42851
ltoes 1.74511
3194
root 2.31568 17.7242 -0.39141 583.014 91.9305 581.004
lowerback 16.2617 -3.27899 1.71527
upperback 5.90623 -3.57951 2.6042
thorax -2.74913 -1.6331 2.41538
lowerneck 20.0358 -7.09401 -2.40281
upperneck -23.1933 -8.14389 9.53192
head -10.1731 -4.70387 4.94656
rclavicle 2.54444e-014 -4.37326e-014
rhumerus 17.5712 -26.5349 -21.7942
rradius 117.677
rwrist 11.7176
rhand 30.9106 8.79946
rfingers 7.12502
rthumb 54.5237 -9.67823
lclavicle 2.54444e-014 -4.37326e-014
lhumerus 31.6583 13.959 43.9385
lradius 122.56
lwrist 31.8797
lhand -2.58878 32.3547
lfingers 7.12502
lthumb 23.1086 60.9889
rfemur -9.82101 1.88995 15.3608
rtibia 21.7518
rfoot -17.9455 -8.51076
rtoes -7.17194
lfemur -7.74312 3.01865 -19.7269
ltibia 13.1572
lfoot -7.31499 -2.26492
ltoes 2.1917
